<svg width="22" height="19" viewBox="0 0 22 19" fill="none" xmlns="http://www.w3.org/2000/svg">
<path d="M11 15.3056C12.375 15.3056 13.5439 14.8436 14.5068 13.9196C15.4697 12.9956 15.9507 11.8743 15.95 10.5556C15.95 9.23611 15.4686 8.11441 14.5057 7.19044C13.5428 6.26648 12.3743 5.80485 11 5.80556C9.625 5.80556 8.45607 6.26754 7.4932 7.1915C6.53033 8.11546 6.04927 9.23681 6.05 10.5556C6.05 11.875 6.53143 12.9967 7.4943 13.9207C8.45717 14.8446 9.62573 15.3063 11 15.3056ZM11 14.25L9.79 11.7167L7.15 10.5556L9.79 9.39444L11 6.86111L12.21 9.39444L14.85 10.5556L12.21 11.7167L11 14.25ZM2.2 19C1.595 19 1.0769 18.7931 0.645702 18.3793C0.214502 17.9656 -0.000731466 17.4687 1.86757e-06 16.8889V4.22222C1.86757e-06 3.64167 0.215602 3.1445 0.646802 2.73072C1.078 2.31694 1.59573 2.11041 2.2 2.11111H5.665L7.7 0H14.3L16.335 2.11111H19.8C20.405 2.11111 20.9231 2.318 21.3543 2.73178C21.7855 3.14556 22.0007 3.64237 22 4.22222V16.8889C22 17.4694 21.7844 17.9666 21.3532 18.3804C20.922 18.7942 20.4043 19.0007 19.8 19H2.2Z" fill="black"/>
</svg>
