<svg width="25" height="25" viewBox="0 0 25 25" fill="none" xmlns="http://www.w3.org/2000/svg">
<path d="M12.338 0C13.9742 0 15.5433 0.64304 16.7002 1.78766C17.8571 2.93228 18.507 4.48471 18.507 6.10345C18.507 7.72218 17.8571 9.27462 16.7002 10.4192C15.5433 11.5639 13.9742 12.2069 12.338 12.2069C10.7019 12.2069 9.13279 11.5639 7.97588 10.4192C6.81896 9.27462 6.16901 7.72218 6.16901 6.10345C6.16901 4.48471 6.81896 2.93228 7.97588 1.78766C9.13279 0.64304 10.7019 0 12.338 0ZM12.338 15.2586C19.1548 15.2586 24.6761 17.9899 24.6761 21.3621V24.4138H0V21.3621C0 17.9899 5.52127 15.2586 12.338 15.2586Z" fill="black"/>
</svg>
